<svg width="40" height="40" viewBox="0 0 40 40" fill="none" xmlns="http://www.w3.org/2000/svg">
<g clip-path="url(#clip0_214_3386)">
<path d="M10.1749 10.802L6.70942 11.0697C5.74513 11.1443 4.88631 11.6497 4.35303 12.4563L0.356423 18.5009C-0.048027 19.1126 -0.112323 19.8782 0.184315 20.5488C0.481031 21.2194 1.09079 21.6868 1.8154 21.799L4.98842 22.2904C5.73068 18.3514 7.50754 14.4221 10.1749 10.802Z" fill="#040102"/>
<path d="M17.7095 35.0116L18.201 38.1847C18.3132 38.9093 18.7806 39.519 19.4511 39.8157C19.7301 39.9391 20.0254 40 20.3192 40C20.7319 40 21.1418 39.8798 21.4991 39.6436L27.5438 35.647C28.3505 35.1137 28.8559 34.2548 28.9302 33.2906L29.198 29.8252C25.5778 32.4926 21.6486 34.2695 17.7095 35.0116Z" fill="#040102"/>
<path d="M16.516 32.8123C16.6262 32.8123 16.737 32.8032 16.8475 32.7848C18.4978 32.5089 20.0884 32.044 21.6058 31.4356L8.56446 18.3943C7.95602 19.9115 7.49118 21.5022 7.21525 23.1525C7.1065 23.8031 7.3247 24.4658 7.79102 24.9322L15.0678 32.209C15.455 32.5961 15.9776 32.8123 16.516 32.8123Z" fill="#040102"/>
<path d="M36.8105 17.7345C40.0018 11.5647 40.12 5.04473 39.9532 1.98694C39.8961 0.939211 39.0608 0.103905 38.013 0.0467965C37.5151 0.0196092 36.9251 0 36.26 0C32.8408 0 27.4306 0.517887 22.2655 3.18951C18.1607 5.31269 12.7781 9.98773 9.60254 16.1316C9.64004 16.1609 9.67668 16.192 9.71121 16.2265L23.7736 30.2889C23.8081 30.3234 23.8391 30.36 23.8684 30.3975C30.0123 27.2218 34.6873 21.8393 36.8105 17.7345ZM23.2575 8.45618C25.5419 6.17175 29.2592 6.17151 31.5438 8.45618C32.6505 9.56281 33.2599 11.0343 33.2599 12.5994C33.2599 14.1644 32.6505 15.6359 31.5438 16.7425C30.4017 17.8846 28.9009 18.4558 27.4007 18.4559C25.9 18.456 24.3999 17.8849 23.2575 16.7425C22.1508 15.6359 21.5413 14.1644 21.5413 12.5994C21.5413 11.0343 22.1508 9.56281 23.2575 8.45618Z" fill="#040102"/>
<path d="M24.9147 15.0853C26.2854 16.456 28.5159 16.4561 29.8866 15.0853C30.5506 14.4212 30.9163 13.5384 30.9163 12.5994C30.9163 11.6603 30.5506 10.7775 29.8866 10.1135C29.2013 9.42811 28.3009 9.08545 27.4006 9.08545C26.5004 9.08545 25.6001 9.42811 24.9148 10.1135C24.2508 10.7775 23.885 11.6603 23.885 12.5994C23.885 13.5384 24.2507 14.4213 24.9147 15.0853Z" fill="#040102"/>
<path d="M1.1956 32.9637C1.49552 32.9637 1.79544 32.8494 2.02419 32.6205L5.85021 28.7945C6.30786 28.3368 6.30786 27.5948 5.85021 27.1372C5.39263 26.6795 4.6506 26.6795 4.19294 27.1372L0.366924 30.9632C-0.0907324 31.4209 -0.0907324 32.1628 0.366924 32.6205C0.595752 32.8493 0.895674 32.9637 1.1956 32.9637Z" fill="#040102"/>
<path d="M9.35661 30.6435C8.89903 30.1859 8.157 30.1859 7.69935 30.6435L0.343486 37.9994C-0.11417 38.4571 -0.11417 39.199 0.343486 39.6567C0.572315 39.8855 0.872236 39.9999 1.17216 39.9999C1.47208 39.9999 1.772 39.8855 2.00075 39.6566L9.35653 32.3008C9.81427 31.8431 9.81427 31.1012 9.35661 30.6435Z" fill="#040102"/>
<path d="M11.2056 34.1496L7.37962 37.9757C6.92196 38.4333 6.92196 39.1753 7.37962 39.6329C7.60845 39.8617 7.90837 39.9762 8.20821 39.9762C8.50806 39.9762 8.80806 39.8618 9.03681 39.6329L12.8628 35.8069C13.3205 35.3492 13.3205 34.6073 12.8628 34.1496C12.4052 33.692 11.6632 33.692 11.2056 34.1496Z" fill="#040102"/>
</g>
<defs>
<clipPath id="clip0_214_3386">
<rect width="40" height="40" fill="white"/>
</clipPath>
</defs>
</svg>
