<svg width="41" height="40" viewBox="0 0 41 40" fill="none" xmlns="http://www.w3.org/2000/svg">
<g clip-path="url(#clip0_214_3436)">
<path d="M28.3825 20.5829V6.37268C28.3825 4.2804 26.6818 2.57812 24.5916 2.57812H4.45764C2.36749 2.57812 0.666748 4.2804 0.666748 6.37268V24.9664C0.666748 25.6247 1.03296 26.2152 1.62256 26.5079C1.867 26.629 2.12915 26.6885 2.38947 26.6885C2.7572 26.6885 3.12158 26.5695 3.42828 26.3364L6.15686 24.2636C6.20264 24.2288 6.2594 24.2099 6.31677 24.2099H24.7555C26.7553 24.2099 28.3825 22.5827 28.3825 20.5829ZM15.5847 18.0042C15.5847 18.6514 15.0598 19.176 14.4128 19.176C13.7655 19.176 13.2409 18.6514 13.2409 18.0042V17.3544C13.2409 16.7072 13.7655 16.1826 14.4128 16.1826C15.0598 16.1826 15.5847 16.7072 15.5847 17.3544V18.0042ZM15.5837 14.0207V14.3652C15.5837 15.0122 15.0591 15.5371 14.4119 15.5371C13.7646 15.5371 13.24 15.0122 13.24 14.3652V13.5532C13.24 12.7414 13.8214 12.0312 14.6224 11.8646C15.111 11.7627 15.4522 11.3248 15.433 10.8231C15.4131 10.3015 14.9725 9.86176 14.4506 9.84283C14.0447 9.82727 13.6724 10.0525 13.4942 10.4132C13.2079 10.9937 12.5051 11.232 11.9247 10.9454C11.3445 10.6592 11.1062 9.95636 11.3925 9.37592C11.9781 8.18939 13.2131 7.4527 14.5345 7.50061C16.285 7.56348 17.7087 8.98376 17.7749 10.7343C17.8314 12.2125 16.9326 13.5233 15.5837 14.0207Z" fill="#040102"/>
<path d="M36.466 10.0271H31.0528V14.1052H35.183C35.8495 14.1052 36.3854 14.6612 36.3534 15.3347C36.3238 15.9646 35.7809 16.4489 35.1504 16.4489H31.0528V18.0114H35.183C35.8495 18.0114 36.3854 18.5674 36.3534 19.241C36.3238 19.8708 35.7809 20.3552 35.1504 20.3552H31.0528C31.0528 23.9013 28.1783 26.7755 24.6325 26.7755H8.97607V30.4754C8.97607 32.7941 10.8605 34.6807 13.1768 34.6807H34.3151C34.4213 34.6807 34.5269 34.7161 34.6111 34.7808L37.7682 37.1786C38.0901 37.423 38.4722 37.5488 38.8583 37.5488C39.1317 37.5488 39.4067 37.4856 39.6627 37.3583C40.2822 37.0513 40.6667 36.4309 40.6667 35.7394V14.2333C40.6667 11.9137 38.7823 10.0271 36.466 10.0271ZM19.226 31.7895H14.4598C13.8122 31.7895 13.2879 31.2652 13.2879 30.6176C13.2879 29.9706 13.8122 29.4457 14.4598 29.4457H19.226C19.8739 29.4457 20.3979 29.9706 20.3979 30.6176C20.3979 31.2652 19.8739 31.7895 19.226 31.7895Z" fill="#040102"/>
</g>
<defs>
<clipPath id="clip0_214_3436">
<rect width="40" height="40" fill="white" transform="translate(0.666748)"/>
</clipPath>
</defs>
</svg>
