<svg width="41" height="40" viewBox="0 0 41 40" fill="none" xmlns="http://www.w3.org/2000/svg">
<g clip-path="url(#clip0_214_3422)">
<path d="M34.4739 0H21.5051V6.08516C21.885 5.98789 22.2787 5.9375 22.677 5.9375C25.2622 5.9375 27.3645 8.03977 27.3645 10.625C27.3645 13.2102 25.2622 15.3125 22.677 15.3125C22.2787 15.3125 21.885 15.2621 21.5051 15.1648V18.8281H27.0829C28.0701 18.8281 28.6145 20.0395 27.9596 20.7782C27.5762 21.2096 27.3645 21.7659 27.3645 22.3438C27.3645 23.6358 28.4162 24.6875 29.7083 24.6875C31.0003 24.6875 32.052 23.6358 32.052 22.3438C32.052 21.7659 31.8403 21.2096 31.4569 20.7782C30.8052 20.0432 31.3218 18.8281 32.3336 18.8281H40.3333V5.85938C40.3333 2.62867 37.7046 0 34.4739 0Z" fill="#040102"/>
<path d="M22.677 8.28125C22.0991 8.28125 21.5429 8.49297 21.1115 8.87633C20.3517 9.55031 19.1614 9.00203 19.1614 7.99969V0H6.19263C2.96192 0 0.333252 2.62867 0.333252 5.85938V18.8281H6.43786C6.33927 18.4466 6.27075 18.0566 6.27075 17.6562C6.27075 15.071 8.37302 12.9688 10.9583 12.9688C13.5435 12.9688 15.6458 15.071 15.6458 17.6562C15.6458 18.0566 15.5774 18.4466 15.4788 18.8281H19.1614V13.2503C19.1614 12.2393 20.3569 11.707 21.1115 12.3737C21.5429 12.757 22.0991 12.9688 22.677 12.9688C23.969 12.9688 25.0208 11.917 25.0208 10.625C25.0208 9.33297 23.969 8.28125 22.677 8.28125Z" fill="#040102"/>
<path d="M17.9895 24.6875C18.3878 24.6875 18.7815 24.7379 19.1614 24.8352V21.1719H13.5836C12.5748 21.1719 12.0708 19.9391 12.7069 19.2218C13.0903 18.7904 13.302 18.2341 13.302 17.6562C13.302 16.3642 12.2503 15.3125 10.9583 15.3125C9.66622 15.3125 8.6145 16.3642 8.6145 17.6562C8.6145 18.2341 8.82622 18.7904 9.20958 19.2218C9.86013 19.9554 9.32646 21.1719 8.33294 21.1719H0.333252V34.1406C0.333252 37.3713 2.96192 40 6.19263 40H19.1614V33.9148C18.7815 34.0121 18.3878 34.0625 17.9895 34.0625C15.4043 34.0625 13.302 31.9602 13.302 29.375C13.302 26.7898 15.4043 24.6875 17.9895 24.6875Z" fill="#040102"/>
<path d="M34.2288 21.1719C34.3274 21.5534 34.3958 21.9434 34.3958 22.3438C34.3958 24.929 32.2935 27.0312 29.7083 27.0312C27.123 27.0312 25.0208 24.929 25.0208 22.3438C25.0208 21.9434 25.0893 21.5534 25.1879 21.1719H21.5051V26.7497C21.5051 27.7569 20.3127 28.2962 19.555 27.6263C19.1236 27.243 18.5674 27.0312 17.9895 27.0312C16.6975 27.0312 15.6458 28.083 15.6458 29.375C15.6458 30.667 16.6975 31.7188 17.9895 31.7188C18.5674 31.7188 19.1236 31.507 19.555 31.1237C20.3232 30.4497 21.5051 31 21.5051 32.0003V40H34.4739C37.7046 40 40.3333 37.3713 40.3333 34.1406V21.1719H34.2288Z" fill="#040102"/>
</g>
<defs>
<clipPath id="clip0_214_3422">
<rect width="40" height="40" fill="white" transform="translate(0.333252)"/>
</clipPath>
</defs>
</svg>
